<svg width="868" height="202" viewBox="0 0 868 202" fill="none" xmlns="http://www.w3.org/2000/svg">
<path fill-rule="evenodd" clip-rule="evenodd" d="M128.448 15.84C112.512 5.28 89.664 0 59.904 0C51.648 0 42.048 0.384001 31.104 1.152C20.16 1.92 9.792 3.264 0 5.184V201.888H44.928V135.072H59.04C88.992 135.072 112.032 129.792 128.16 119.232C144.288 108.48 152.352 91.104 152.352 67.104C152.352 43.296 144.384 26.208 128.448 15.84ZM318.688 201.888V167.653C268.718 179.556 228.795 191.622 200.35 201.888H318.688ZM185.344 196.813C210.708 187.02 247.569 175.209 294.525 163.296H230.272V2.304H185.344V196.813ZM336.465 201.888C341.561 187.253 346.479 173.374 351.22 160.251C398.206 150.046 452.548 140.272 513.307 132.218C514.548 135.533 515.793 138.884 517.041 142.272C523.761 160.512 530.865 180.384 538.353 201.888H490.257C488.145 194.976 485.745 187.872 483.057 180.576L475.569 158.688H397.809C395.313 165.984 392.721 173.28 390.033 180.576C387.537 187.872 385.233 194.976 383.121 201.888H336.465ZM355.252 149.154C400.484 139.497 452.224 130.29 509.68 122.613C505.471 111.559 501.301 100.928 497.169 90.72C490.833 74.592 484.497 59.328 478.161 44.928C471.825 30.336 465.393 16.128 458.865 2.304H415.953C409.233 16.128 402.705 30.336 396.369 44.928C390.225 59.328 383.889 74.592 377.361 90.72C371.025 106.848 364.497 124.032 357.777 142.272C356.941 144.541 356.099 146.835 355.252 149.154ZM585.324 126.144C584.863 125.425 584.403 124.707 583.943 123.988C600.302 122.34 617.039 120.829 634.142 119.476C632.852 121.506 631.555 123.536 630.252 125.568V201.888H585.324V126.144ZM577.947 114.548C598.314 112.451 619.27 110.566 640.788 108.931C650.016 94.17 658.887 79.4596 667.404 64.8C679.116 44.64 690.444 23.808 701.388 2.304H651.852C645.708 16.128 638.988 29.856 631.692 43.488C624.396 57.12 616.716 70.752 608.652 84.384C600.588 70.752 593.004 57.12 585.9 43.488C578.796 29.856 572.172 16.128 566.028 2.304H513.9C524.844 23.808 536.172 44.736 547.884 65.088C557.527 81.5746 567.548 98.0612 577.947 114.548ZM725.906 201.888V113.982C765.907 112.347 807.526 111.63 850.61 112.04V116.064H770.834V164.16H867.314V201.888H725.906ZM725.906 103.974C765.922 102.345 807.54 101.631 850.61 102.04V79.2H770.834V40.032H860.69V2.304H725.906V103.974ZM436.401 47.52C435.441 50.4 434.001 54.336 432.081 59.328C430.161 64.32 427.953 70.08 425.457 76.608C422.961 83.136 420.177 90.336 417.105 98.208C414.225 106.08 411.249 114.336 408.177 122.976H464.913C461.841 114.336 458.865 106.08 455.985 98.208C453.105 90.336 450.321 83.136 447.633 76.608C445.137 70.08 442.929 64.32 441.009 59.328C439.089 54.336 437.553 50.4 436.401 47.52ZM105.809 70.0601C107.724 68.8904 107.724 66.1096 105.809 64.9399L50.064 30.8841C48.0649 29.6628 45.5 31.1015 45.5 33.4441L45.5 101.556C45.5 103.898 48.0649 105.337 50.064 104.116L105.809 70.0601Z" fill="white"/>
</svg>
